<svg width="640" height="512" viewBox="0 0 640 512" fill="none" xmlns="http://www.w3.org/2000/svg">
<path d="M515.822 392.909L519.671 395.109L522.905 392.076C534.778 380.939 550.538 374 568 374C604.486 374 634 403.514 634 440C634 476.486 604.486 506 568 506C531.514 506 502 476.486 502 440C502 438.02 502.267 436.15 502.591 433.876C502.707 433.066 502.83 432.204 502.951 431.268L503.465 427.285L499.978 425.291L417.778 378.291L413.809 376.022L410.568 379.247C391.45 398.27 365.055 410 336 410C277.414 410 230 362.586 230 304C230 269.796 246.525 239.612 271.843 220.268L275.68 217.336L273.636 212.96L240.136 141.26L238.314 137.362L234.037 137.837C233.622 137.883 233.089 137.962 232.762 138.01C232.659 138.025 232.577 138.037 232.525 138.045C232.156 138.096 232.031 138.1 232 138.1C195.514 138.1 166 108.586 166 72.1001C166 35.6138 195.514 6.1001 232 6.1001C268.486 6.1001 298 35.6138 298 72.1001C298 91.7541 289.236 109.252 275.436 121.396L272.062 124.365L273.963 128.437L306.163 197.437L308.217 201.839L312.949 200.746C320.377 199.032 328.121 198 336 198C394.586 198 442 245.414 442 304C442 316.946 439.281 329.237 434.971 340.924L433.213 345.689L437.622 348.209L515.822 392.909ZM202 72.0001C202 88.5138 215.486 102 232 102C248.514 102 262 88.5138 262 72.0001C262 55.4864 248.514 42.0001 232 42.0001C215.486 42.0001 202 55.4864 202 72.0001ZM266 304C266 342.614 297.386 374 336 374C374.614 374 406 342.614 406 304C406 265.386 374.614 234 336 234C297.386 234 266 265.386 266 304ZM538 440C538 456.514 551.486 470 568 470C584.514 470 598 456.514 598 440C598 423.486 584.514 410 568 410C551.486 410 538 423.486 538 440ZM493.2 185.6L505.2 201.6L466.8 230.4L454.8 214.4L493.2 185.6ZM634 128C634 159.986 607.986 186 576 186C544.014 186 518 159.986 518 128C518 96.0138 544.014 70.0001 576 70.0001C607.986 70.0001 634 96.0138 634 128ZM194 294V314H158V294H194ZM6 304C6 272.014 32.0137 246 64 246C95.9863 246 122 272.014 122 304C122 335.986 95.9863 362 64 362C32.0137 362 6 335.986 6 304Z" fill="url(#paint0_linear_760_689)"/>
<path d="M515.822 392.909L519.671 395.109L522.905 392.076C534.778 380.939 550.538 374 568 374C604.486 374 634 403.514 634 440C634 476.486 604.486 506 568 506C531.514 506 502 476.486 502 440C502 438.02 502.267 436.15 502.591 433.876C502.707 433.066 502.83 432.204 502.951 431.268L503.465 427.285L499.978 425.291L417.778 378.291L413.809 376.022L410.568 379.247C391.45 398.27 365.055 410 336 410C277.414 410 230 362.586 230 304C230 269.796 246.525 239.612 271.843 220.268L275.68 217.336L273.636 212.96L240.136 141.26L238.314 137.362L234.037 137.837C233.622 137.883 233.089 137.962 232.762 138.01C232.659 138.025 232.577 138.037 232.525 138.045C232.156 138.096 232.031 138.1 232 138.1C195.514 138.1 166 108.586 166 72.1001C166 35.6138 195.514 6.1001 232 6.1001C268.486 6.1001 298 35.6138 298 72.1001C298 91.7541 289.236 109.252 275.436 121.396L272.062 124.365L273.963 128.437L306.163 197.437L308.217 201.839L312.949 200.746C320.377 199.032 328.121 198 336 198C394.586 198 442 245.414 442 304C442 316.946 439.281 329.237 434.971 340.924L433.213 345.689L437.622 348.209L515.822 392.909ZM202 72.0001C202 88.5138 215.486 102 232 102C248.514 102 262 88.5138 262 72.0001C262 55.4864 248.514 42.0001 232 42.0001C215.486 42.0001 202 55.4864 202 72.0001ZM266 304C266 342.614 297.386 374 336 374C374.614 374 406 342.614 406 304C406 265.386 374.614 234 336 234C297.386 234 266 265.386 266 304ZM538 440C538 456.514 551.486 470 568 470C584.514 470 598 456.514 598 440C598 423.486 584.514 410 568 410C551.486 410 538 423.486 538 440ZM493.2 185.6L505.2 201.6L466.8 230.4L454.8 214.4L493.2 185.6ZM634 128C634 159.986 607.986 186 576 186C544.014 186 518 159.986 518 128C518 96.0138 544.014 70.0001 576 70.0001C607.986 70.0001 634 96.0138 634 128ZM194 294V314H158V294H194ZM6 304C6 272.014 32.0137 246 64 246C95.9863 246 122 272.014 122 304C122 335.986 95.9863 362 64 362C32.0137 362 6 335.986 6 304Z" stroke="url(#paint1_linear_760_689)" stroke-width="12"/>
<path d="M515.822 392.909L519.671 395.109L522.905 392.076C534.778 380.939 550.538 374 568 374C604.486 374 634 403.514 634 440C634 476.486 604.486 506 568 506C531.514 506 502 476.486 502 440C502 438.02 502.267 436.15 502.591 433.876C502.707 433.066 502.83 432.204 502.951 431.268L503.465 427.285L499.978 425.291L417.778 378.291L413.809 376.022L410.568 379.247C391.45 398.27 365.055 410 336 410C277.414 410 230 362.586 230 304C230 269.796 246.525 239.612 271.843 220.268L275.68 217.336L273.636 212.96L240.136 141.26L238.314 137.362L234.037 137.837C233.622 137.883 233.089 137.962 232.762 138.01C232.659 138.025 232.577 138.037 232.525 138.045C232.156 138.096 232.031 138.1 232 138.1C195.514 138.1 166 108.586 166 72.1001C166 35.6138 195.514 6.1001 232 6.1001C268.486 6.1001 298 35.6138 298 72.1001C298 91.7541 289.236 109.252 275.436 121.396L272.062 124.365L273.963 128.437L306.163 197.437L308.217 201.839L312.949 200.746C320.377 199.032 328.121 198 336 198C394.586 198 442 245.414 442 304C442 316.946 439.281 329.237 434.971 340.924L433.213 345.689L437.622 348.209L515.822 392.909ZM202 72.0001C202 88.5138 215.486 102 232 102C248.514 102 262 88.5138 262 72.0001C262 55.4864 248.514 42.0001 232 42.0001C215.486 42.0001 202 55.4864 202 72.0001ZM266 304C266 342.614 297.386 374 336 374C374.614 374 406 342.614 406 304C406 265.386 374.614 234 336 234C297.386 234 266 265.386 266 304ZM538 440C538 456.514 551.486 470 568 470C584.514 470 598 456.514 598 440C598 423.486 584.514 410 568 410C551.486 410 538 423.486 538 440ZM493.2 185.6L505.2 201.6L466.8 230.4L454.8 214.4L493.2 185.6ZM634 128C634 159.986 607.986 186 576 186C544.014 186 518 159.986 518 128C518 96.0138 544.014 70.0001 576 70.0001C607.986 70.0001 634 96.0138 634 128ZM194 294V314H158V294H194ZM6 304C6 272.014 32.0137 246 64 246C95.9863 246 122 272.014 122 304C122 335.986 95.9863 362 64 362C32.0137 362 6 335.986 6 304Z" stroke="white" stroke-opacity="0.66" stroke-width="12"/>
<defs>
<linearGradient id="paint0_linear_760_689" x1="139.062" y1="0.100124" x2="663.574" y2="167.13" gradientUnits="userSpaceOnUse">
<stop stop-color="#FFB039"/>
<stop offset="1" stop-color="#FF5AFF"/>
</linearGradient>
<linearGradient id="paint1_linear_760_689" x1="115" y1="456" x2="271.121" y2="-77.6506" gradientUnits="userSpaceOnUse">
<stop stop-color="#FFB039"/>
<stop offset="1" stop-color="#FF5AFF"/>
</linearGradient>
</defs>
</svg>
