<svg width="577" height="512" viewBox="0 0 577 512" fill="none" xmlns="http://www.w3.org/2000/svg">
<path d="M190.261 212.892L190.264 212.89C203.006 202.165 217.311 197.8 231.3 197.8C251.809 197.8 271.401 207.094 283.541 219.327L287.816 223.634L292.075 219.31C304.104 207.097 323.687 197.8 344.2 197.8C358.093 197.8 372.497 202.167 385.236 212.89L385.239 212.892C419.827 241.975 414.888 289.465 390.118 314.697L302.329 404.086C299.644 406.807 294.712 409.436 289.154 409.978C283.823 410.499 278.107 409.099 273.176 404.091L185.382 314.697C185.381 314.696 185.381 314.696 185.381 314.696C160.612 289.464 155.674 241.975 190.261 212.892ZM364.377 289.408L364.413 289.372L364.447 289.335C367.147 286.497 371.822 279.232 373.339 270.347C374.937 260.993 373.001 249.698 361.963 240.409L358.1 245L361.958 240.404C353.184 233.04 343.136 232.838 335.154 234.949C327.442 236.989 320.899 241.342 317.778 244.638L287.8 275.14L257.786 244.601C257.786 244.601 257.786 244.601 257.786 244.601C254.633 241.383 248.058 237.001 240.281 234.949C232.299 232.842 222.268 233.034 213.539 240.408C202.46 249.686 200.485 260.977 202.086 270.347C203.604 279.236 208.311 286.526 211.105 289.39L211.112 289.397L211.12 289.405L283.42 363.005L287.697 367.359L291.977 363.008L364.377 289.408ZM505.9 171.8V174.565L508.003 176.362L569.103 228.562L573 224L569.186 228.631C570.144 229.42 570.214 230.736 569.671 231.505L549.468 256.186C548.785 257.016 547.507 257.15 546.67 256.513L515.98 229.31L506 220.464V233.8V496C506 501.486 501.486 506 496 506H79.8C74.2651 506 69.7 501.438 69.7 496V233.8V220.185L59.6516 229.372L29.5407 256.899C28.5726 257.588 27.3851 257.374 26.7354 256.59C26.7341 256.589 26.7329 256.587 26.7316 256.586L6.48521 231.852C6.48026 231.846 6.47535 231.839 6.47048 231.833C5.69683 230.847 5.90115 229.601 6.71424 228.931L6.72173 228.925L6.72919 228.919L266.313 13.7324C266.316 13.7303 266.318 13.7282 266.321 13.7262C278.805 3.45574 296.905 3.45781 309.387 13.7324L309.393 13.7373L309.399 13.7421L460.099 137.142L469.9 145.168V132.5V71.9999C469.9 70.9136 470.814 69.9999 471.9 69.9999H503.9C504.986 69.9999 505.9 70.9136 505.9 71.9999V171.8ZM463.8 470H469.8V464V194.5V191.658L467.601 189.857L296.625 49.8775C296.621 49.8738 296.616 49.8701 296.612 49.8664C291.497 45.6444 284.003 45.6444 278.888 49.8664C278.884 49.8701 278.879 49.8738 278.875 49.8775L107.899 189.857L105.7 191.658V194.5V464V470H111.7H463.8Z" fill="url(#paint0_linear_760_687)"/>
<path d="M190.261 212.892L190.264 212.89C203.006 202.165 217.311 197.8 231.3 197.8C251.809 197.8 271.401 207.094 283.541 219.327L287.816 223.634L292.075 219.31C304.104 207.097 323.687 197.8 344.2 197.8C358.093 197.8 372.497 202.167 385.236 212.89L385.239 212.892C419.827 241.975 414.888 289.465 390.118 314.697L302.329 404.086C299.644 406.807 294.712 409.436 289.154 409.978C283.823 410.499 278.107 409.099 273.176 404.091L185.382 314.697C185.381 314.696 185.381 314.696 185.381 314.696C160.612 289.464 155.674 241.975 190.261 212.892ZM364.377 289.408L364.413 289.372L364.447 289.335C367.147 286.497 371.822 279.232 373.339 270.347C374.937 260.993 373.001 249.698 361.963 240.409L358.1 245L361.958 240.404C353.184 233.04 343.136 232.838 335.154 234.949C327.442 236.989 320.899 241.342 317.778 244.638L287.8 275.14L257.786 244.601C257.786 244.601 257.786 244.601 257.786 244.601C254.633 241.383 248.058 237.001 240.281 234.949C232.299 232.842 222.268 233.034 213.539 240.408C202.46 249.686 200.485 260.977 202.086 270.347C203.604 279.236 208.311 286.526 211.105 289.39L211.112 289.397L211.12 289.405L283.42 363.005L287.697 367.359L291.977 363.008L364.377 289.408ZM505.9 171.8V174.565L508.003 176.362L569.103 228.562L573 224L569.186 228.631C570.144 229.42 570.214 230.736 569.671 231.505L549.468 256.186C548.785 257.016 547.507 257.15 546.67 256.513L515.98 229.31L506 220.464V233.8V496C506 501.486 501.486 506 496 506H79.8C74.2651 506 69.7 501.438 69.7 496V233.8V220.185L59.6516 229.372L29.5407 256.899C28.5726 257.588 27.3851 257.374 26.7354 256.59C26.7341 256.589 26.7329 256.587 26.7316 256.586L6.48521 231.852C6.48026 231.846 6.47535 231.839 6.47048 231.833C5.69683 230.847 5.90115 229.601 6.71424 228.931L6.72173 228.925L6.72919 228.919L266.313 13.7324C266.316 13.7303 266.318 13.7282 266.321 13.7262C278.805 3.45574 296.905 3.45781 309.387 13.7324L309.393 13.7373L309.399 13.7421L460.099 137.142L469.9 145.168V132.5V71.9999C469.9 70.9136 470.814 69.9999 471.9 69.9999H503.9C504.986 69.9999 505.9 70.9136 505.9 71.9999V171.8ZM463.8 470H469.8V464V194.5V191.658L467.601 189.857L296.625 49.8775C296.621 49.8738 296.616 49.8701 296.612 49.8664C291.497 45.6444 284.003 45.6444 278.888 49.8664C278.884 49.8701 278.879 49.8738 278.875 49.8775L107.899 189.857L105.7 191.658V194.5V464V470H111.7H463.8Z" stroke="url(#paint1_linear_760_687)" stroke-width="12"/>
<path d="M190.261 212.892L190.264 212.89C203.006 202.165 217.311 197.8 231.3 197.8C251.809 197.8 271.401 207.094 283.541 219.327L287.816 223.634L292.075 219.31C304.104 207.097 323.687 197.8 344.2 197.8C358.093 197.8 372.497 202.167 385.236 212.89L385.239 212.892C419.827 241.975 414.888 289.465 390.118 314.697L302.329 404.086C299.644 406.807 294.712 409.436 289.154 409.978C283.823 410.499 278.107 409.099 273.176 404.091L185.382 314.697C185.381 314.696 185.381 314.696 185.381 314.696C160.612 289.464 155.674 241.975 190.261 212.892ZM364.377 289.408L364.413 289.372L364.447 289.335C367.147 286.497 371.822 279.232 373.339 270.347C374.937 260.993 373.001 249.698 361.963 240.409L358.1 245L361.958 240.404C353.184 233.04 343.136 232.838 335.154 234.949C327.442 236.989 320.899 241.342 317.778 244.638L287.8 275.14L257.786 244.601C257.786 244.601 257.786 244.601 257.786 244.601C254.633 241.383 248.058 237.001 240.281 234.949C232.299 232.842 222.268 233.034 213.539 240.408C202.46 249.686 200.485 260.977 202.086 270.347C203.604 279.236 208.311 286.526 211.105 289.39L211.112 289.397L211.12 289.405L283.42 363.005L287.697 367.359L291.977 363.008L364.377 289.408ZM505.9 171.8V174.565L508.003 176.362L569.103 228.562L573 224L569.186 228.631C570.144 229.42 570.214 230.736 569.671 231.505L549.468 256.186C548.785 257.016 547.507 257.15 546.67 256.513L515.98 229.31L506 220.464V233.8V496C506 501.486 501.486 506 496 506H79.8C74.2651 506 69.7 501.438 69.7 496V233.8V220.185L59.6516 229.372L29.5407 256.899C28.5726 257.588 27.3851 257.374 26.7354 256.59C26.7341 256.589 26.7329 256.587 26.7316 256.586L6.48521 231.852C6.48026 231.846 6.47535 231.839 6.47048 231.833C5.69683 230.847 5.90115 229.601 6.71424 228.931L6.72173 228.925L6.72919 228.919L266.313 13.7324C266.316 13.7303 266.318 13.7282 266.321 13.7262C278.805 3.45574 296.905 3.45781 309.387 13.7324L309.393 13.7373L309.399 13.7421L460.099 137.142L469.9 145.168V132.5V71.9999C469.9 70.9136 470.814 69.9999 471.9 69.9999H503.9C504.986 69.9999 505.9 70.9136 505.9 71.9999V171.8ZM463.8 470H469.8V464V194.5V191.658L467.601 189.857L296.625 49.8775C296.621 49.8738 296.616 49.8701 296.612 49.8664C291.497 45.6444 284.003 45.6444 278.888 49.8664C278.884 49.8701 278.879 49.8738 278.875 49.8775L107.899 189.857L105.7 191.658V194.5V464V470H111.7H463.8Z" stroke="white" stroke-opacity="0.66" stroke-width="12"/>
<defs>
<linearGradient id="paint0_linear_760_687" x1="125.148" y1="0.0249289" x2="605.642" y2="137.723" gradientUnits="userSpaceOnUse">
<stop stop-color="#FFB039"/>
<stop offset="1" stop-color="#FF5AFF"/>
</linearGradient>
<linearGradient id="paint1_linear_760_687" x1="103.491" y1="455.992" x2="273.848" y2="-68.0359" gradientUnits="userSpaceOnUse">
<stop stop-color="#FFB039"/>
<stop offset="1" stop-color="#FF5AFF"/>
</linearGradient>
</defs>
</svg>
