<svg width="100" height="59" viewBox="0 0 100 59" xmlns="http://www.w3.org/2000/svg">
<title>HEA Logo</title>
<path d="M76.3697 23.2774C70.7836 23.2774 66.939 25.7386 65.2024 32.3532L63.4128 37.963C62.0862 42.7509 60.0698 44.0296 58.1499 44.0296C54.397 44.0296 52.6121 41.1021 52.6121 34.8096V34.4923H63.736C63.736 27.9691 60.1663 23.2822 54.0786 23.2822C46.7994 23.2822 41.5365 27.8874 41.5365 35.4586C41.5365 42.7557 45.8828 47.2696 53.162 47.2696C58.6371 47.2696 62.4383 44.8997 64.228 38.5736L66.1238 32.5839C67.4503 27.7961 69.4667 26.5174 71.3866 26.5174C75.1396 26.5174 77.4068 28.0028 77.4068 34.2952V34.6125H66.283C66.283 41.1357 69.3702 47.2648 75.4579 47.2648C82.7372 47.2648 88 42.6596 88 35.0884C87.9952 27.7961 83.644 23.2774 76.3697 23.2774ZM54.8504 24.2388C59.1533 24.2388 62.0524 28.0172 62.0524 33.579H52.6073C52.6507 28.1951 53.2006 24.2388 54.8504 24.2388ZM74.6717 46.313C70.3688 46.313 67.952 41.0925 67.952 35.5307H77.3971C77.3537 40.9098 76.3214 46.313 74.6717 46.313Z" fill="currentColor"/>
<path d="M39.5925 43.097C39.5925 45.3612 40.1617 46.2553 41.5317 46.5822V47.4282H31.1893V46.5822C32.5593 46.2505 33.1285 45.3564 33.1285 43.097V30.1852C33.1285 27.45 32.3229 25.8252 30.9047 25.2964C27.393 23.9841 23.9391 27.1231 22.3327 28.9594V43.097C22.3327 45.3612 22.9019 46.2553 24.2719 46.5822V47.4282H12.0675V46.5822C13.4858 46.2505 14.0067 45.3564 14.0067 43.097V17.2349C14.0067 14.9708 13.4182 15.0285 12 14.6487V13.8027L14.6676 13.793C19.3033 13.793 22.3279 12 22.3279 12V27.5894C24.2189 25.3733 27.2 23.2534 31.5511 23.2534C36.1869 23.2534 39.5925 25.5175 39.5925 31.8292V43.097V43.097Z" fill="currentColor"/>
</svg>
