<svg width="66" height="38" viewBox="0 0 66 38" xmlns="http://www.w3.org/2000/svg">
<path d="M33.0117 0.484985C25.8133 10.285 23.1067 25.4983 33.0117 33.875C42.8117 25.5917 40.3267 10.46 33.0117 0.484985Z"/>
<path d="M23.62 16.9C23.6667 16.305 23.095 15.325 22.5583 15.0917C19.2567 13.6683 15.9083 12.3617 12.5367 11.125C11.51 10.7517 10.3667 10.74 9.24666 10.5533C9.00166 20.7967 18.405 32.09 28.625 33.7583C24.1917 28.7533 23.165 23.0483 23.62 16.9Z"/>
<path d="M56.8 10.5416C51.6783 11.16 47.1167 12.9333 42.835 15.43C42.5083 15.6166 42.38 16.375 42.3683 16.865C42.31 18.755 42.45 20.6683 42.2867 22.5466C41.925 26.7233 40.3967 30.4566 37.3983 33.735C47.3967 32.3233 56.7767 21.1 56.8 10.5416Z"/>
<path d="M56.3333 22.325C55.9483 22.3483 55.4117 22.7566 55.2483 23.1183C53.1133 27.855 49.3683 30.9933 44.9583 33.42C42.7533 34.6333 40.42 35.6016 38.145 36.675C45.32 39.93 60.16 33.175 65.0133 24.4016C62.3533 22.6983 59.425 22.115 56.3333 22.325Z"/>
<path d="M27.7383 36.5C27.505 36.395 27.2833 36.29 27.0383 36.1967C20.1783 33.5017 13.9483 30.0367 10.67 22.9083C10.53 22.605 10.005 22.325 9.64333 22.3017C6.55166 22.1267 3.62333 22.6983 0.986664 24.425C7.11166 33.5483 18.3933 39.3 27.9133 36.7683C27.8083 36.605 27.785 36.5233 27.7383 36.5Z"/>
<path d="M22.2083 12.35C22.815 12.665 23.445 12.9567 24.0517 13.2483C26.665 7.87001 25.9417 5.85167 20.575 3.53C20.1783 3.355 19.77 3.22667 19.1517 3.005C18.93 3.82167 18.72 4.41667 18.6033 5.035C17.81 9.57334 18.1483 10.25 22.2083 12.35Z"/>
<path d="M43.6167 12.35C47.6767 10.25 48.015 9.57334 47.21 5.035C47.105 4.42834 46.895 3.83334 46.6617 3.005C46.0433 3.22667 45.635 3.355 45.2383 3.53C39.8717 5.85167 39.1367 7.87001 41.7617 13.2483C42.3917 12.9567 43.01 12.665 43.6167 12.35Z"/>
</svg>
