<svg width="576" height="512" viewBox="0 0 576 512" fill="none" xmlns="http://www.w3.org/2000/svg">
<path d="M415.966 182L415.983 182H416H512C544.036 182 570 207.964 570 240V352C570 366.36 558.357 378 544 378H538V384V480C538 494.36 526.357 506 512 506H416C401.643 506 390 494.36 390 480V414.855C392.973 413.061 395.762 410.948 398.322 408.55L398.33 408.542L398.339 408.534L426 382.422V464V470H432H496H502V464V342H528H534V336V240C534 227.865 524.133 218 512 218H417.812L398.357 199.646L398.339 199.629L398.321 199.613C394.424 195.996 390.038 193.04 385.321 190.836C394.579 185.012 405.161 181.939 415.966 182ZM160.034 182C170.838 181.939 181.42 185.012 190.679 190.835C185.966 193.037 181.584 195.989 177.69 199.601L177.671 199.618L177.652 199.636L158.188 218H64C51.8666 218 42 227.865 42 240V336V342H48H74V464V470H80H144H150V464V382.438L177.643 408.514L177.652 408.522L177.661 408.531C180.228 410.933 183.022 413.053 186 414.856V480C186 494.36 174.357 506 160 506H64C49.6431 506 38 494.36 38 480V384V378H32C17.6431 378 6 366.36 6 352V240C6 207.964 31.9638 182 64 182H160H160.017L160.034 182ZM361.529 230.544L361.589 230.52L361.649 230.494C362.739 230.025 363.907 229.893 365.039 230.092C366.163 230.291 367.259 230.819 368.196 231.67L440.23 299.654C440.754 300.177 441.194 300.831 441.504 301.586C441.821 302.358 441.989 303.206 441.988 304.073C441.987 304.939 441.817 305.786 441.498 306.558C441.186 307.314 440.743 307.967 440.217 308.49L368.175 376.48C367.238 377.334 366.141 377.864 365.016 378.063C363.884 378.264 362.715 378.132 361.625 377.664L361.573 377.642L361.52 377.621C360.583 377.239 359.709 376.54 359.057 375.549C358.409 374.564 358.028 373.358 358 372.085V336V330H352H224H218V336V372.082C217.971 373.356 217.588 374.563 216.939 375.547C216.285 376.539 215.41 377.237 214.471 377.616L214.413 377.64L214.355 377.664C213.265 378.132 212.096 378.264 210.964 378.063C209.839 377.864 208.742 377.334 207.805 376.48L135.767 308.493C135.242 307.97 134.8 307.316 134.489 306.561C134.171 305.789 134.002 304.941 134.002 304.075C134.002 303.208 134.171 302.36 134.489 301.589C134.8 300.833 135.241 300.18 135.767 299.657L207.823 231.671C208.761 230.819 209.857 230.291 210.981 230.092C212.113 229.893 213.281 230.025 214.371 230.494L214.425 230.517L214.48 230.539C215.417 230.92 216.29 231.619 216.942 232.609C217.589 233.592 217.971 234.796 218 236.069V272V278H224H352H358V272V236.071C358.03 234.798 358.414 233.594 359.062 232.611C359.716 231.62 360.591 230.923 361.529 230.544ZM538 80C538 120.91 504.906 154 464 154C423.094 154 390 120.91 390 80C390 39.0899 423.094 6 464 6C504.906 6 538 39.0899 538 80ZM502 80C502 59.0433 484.953 42 464 42C443.047 42 426 59.0433 426 80C426 100.957 443.047 118 464 118C484.953 118 502 100.957 502 80ZM186 80C186 120.91 152.906 154 112 154C71.0935 154 38 120.91 38 80C38 39.0899 71.0935 6 112 6C152.906 6 186 39.0899 186 80ZM150 80C150 59.0433 132.953 42 112 42C91.0466 42 74 59.0433 74 80C74 100.957 91.0466 118 112 118C132.953 118 150 100.957 150 80Z" fill="url(#paint0_linear_760_688)"/>
<path d="M415.966 182L415.983 182H416H512C544.036 182 570 207.964 570 240V352C570 366.36 558.357 378 544 378H538V384V480C538 494.36 526.357 506 512 506H416C401.643 506 390 494.36 390 480V414.855C392.973 413.061 395.762 410.948 398.322 408.55L398.33 408.542L398.339 408.534L426 382.422V464V470H432H496H502V464V342H528H534V336V240C534 227.865 524.133 218 512 218H417.812L398.357 199.646L398.339 199.629L398.321 199.613C394.424 195.996 390.038 193.04 385.321 190.836C394.579 185.012 405.161 181.939 415.966 182ZM160.034 182C170.838 181.939 181.42 185.012 190.679 190.835C185.966 193.037 181.584 195.989 177.69 199.601L177.671 199.618L177.652 199.636L158.188 218H64C51.8666 218 42 227.865 42 240V336V342H48H74V464V470H80H144H150V464V382.438L177.643 408.514L177.652 408.522L177.661 408.531C180.228 410.933 183.022 413.053 186 414.856V480C186 494.36 174.357 506 160 506H64C49.6431 506 38 494.36 38 480V384V378H32C17.6431 378 6 366.36 6 352V240C6 207.964 31.9638 182 64 182H160H160.017L160.034 182ZM361.529 230.544L361.589 230.52L361.649 230.494C362.739 230.025 363.907 229.893 365.039 230.092C366.163 230.291 367.259 230.819 368.196 231.67L440.23 299.654C440.754 300.177 441.194 300.831 441.504 301.586C441.821 302.358 441.989 303.206 441.988 304.073C441.987 304.939 441.817 305.786 441.498 306.558C441.186 307.314 440.743 307.967 440.217 308.49L368.175 376.48C367.238 377.334 366.141 377.864 365.016 378.063C363.884 378.264 362.715 378.132 361.625 377.664L361.573 377.642L361.52 377.621C360.583 377.239 359.709 376.54 359.057 375.549C358.409 374.564 358.028 373.358 358 372.085V336V330H352H224H218V336V372.082C217.971 373.356 217.588 374.563 216.939 375.547C216.285 376.539 215.41 377.237 214.471 377.616L214.413 377.64L214.355 377.664C213.265 378.132 212.096 378.264 210.964 378.063C209.839 377.864 208.742 377.334 207.805 376.48L135.767 308.493C135.242 307.97 134.8 307.316 134.489 306.561C134.171 305.789 134.002 304.941 134.002 304.075C134.002 303.208 134.171 302.36 134.489 301.589C134.8 300.833 135.241 300.18 135.767 299.657L207.823 231.671C208.761 230.819 209.857 230.291 210.981 230.092C212.113 229.893 213.281 230.025 214.371 230.494L214.425 230.517L214.48 230.539C215.417 230.92 216.29 231.619 216.942 232.609C217.589 233.592 217.971 234.796 218 236.069V272V278H224H352H358V272V236.071C358.03 234.798 358.414 233.594 359.062 232.611C359.716 231.62 360.591 230.923 361.529 230.544ZM538 80C538 120.91 504.906 154 464 154C423.094 154 390 120.91 390 80C390 39.0899 423.094 6 464 6C504.906 6 538 39.0899 538 80ZM502 80C502 59.0433 484.953 42 464 42C443.047 42 426 59.0433 426 80C426 100.957 443.047 118 464 118C484.953 118 502 100.957 502 80ZM186 80C186 120.91 152.906 154 112 154C71.0935 154 38 120.91 38 80C38 39.0899 71.0935 6 112 6C152.906 6 186 39.0899 186 80ZM150 80C150 59.0433 132.953 42 112 42C91.0466 42 74 59.0433 74 80C74 100.957 91.0466 118 112 118C132.953 118 150 100.957 150 80Z" stroke="url(#paint1_linear_760_688)" stroke-width="12"/>
<path d="M415.966 182L415.983 182H416H512C544.036 182 570 207.964 570 240V352C570 366.36 558.357 378 544 378H538V384V480C538 494.36 526.357 506 512 506H416C401.643 506 390 494.36 390 480V414.855C392.973 413.061 395.762 410.948 398.322 408.55L398.33 408.542L398.339 408.534L426 382.422V464V470H432H496H502V464V342H528H534V336V240C534 227.865 524.133 218 512 218H417.812L398.357 199.646L398.339 199.629L398.321 199.613C394.424 195.996 390.038 193.04 385.321 190.836C394.579 185.012 405.161 181.939 415.966 182ZM160.034 182C170.838 181.939 181.42 185.012 190.679 190.835C185.966 193.037 181.584 195.989 177.69 199.601L177.671 199.618L177.652 199.636L158.188 218H64C51.8666 218 42 227.865 42 240V336V342H48H74V464V470H80H144H150V464V382.438L177.643 408.514L177.652 408.522L177.661 408.531C180.228 410.933 183.022 413.053 186 414.856V480C186 494.36 174.357 506 160 506H64C49.6431 506 38 494.36 38 480V384V378H32C17.6431 378 6 366.36 6 352V240C6 207.964 31.9638 182 64 182H160H160.017L160.034 182ZM361.529 230.544L361.589 230.52L361.649 230.494C362.739 230.025 363.907 229.893 365.039 230.092C366.163 230.291 367.259 230.819 368.196 231.67L440.23 299.654C440.754 300.177 441.194 300.831 441.504 301.586C441.821 302.358 441.989 303.206 441.988 304.073C441.987 304.939 441.817 305.786 441.498 306.558C441.186 307.314 440.743 307.967 440.217 308.49L368.175 376.48C367.238 377.334 366.141 377.864 365.016 378.063C363.884 378.264 362.715 378.132 361.625 377.664L361.573 377.642L361.52 377.621C360.583 377.239 359.709 376.54 359.057 375.549C358.409 374.564 358.028 373.358 358 372.085V336V330H352H224H218V336V372.082C217.971 373.356 217.588 374.563 216.939 375.547C216.285 376.539 215.41 377.237 214.471 377.616L214.413 377.64L214.355 377.664C213.265 378.132 212.096 378.264 210.964 378.063C209.839 377.864 208.742 377.334 207.805 376.48L135.767 308.493C135.242 307.97 134.8 307.316 134.489 306.561C134.171 305.789 134.002 304.941 134.002 304.075C134.002 303.208 134.171 302.36 134.489 301.589C134.8 300.833 135.241 300.18 135.767 299.657L207.823 231.671C208.761 230.819 209.857 230.291 210.981 230.092C212.113 229.893 213.281 230.025 214.371 230.494L214.425 230.517L214.48 230.539C215.417 230.92 216.29 231.619 216.942 232.609C217.589 233.592 217.971 234.796 218 236.069V272V278H224H352H358V272V236.071C358.03 234.798 358.414 233.594 359.062 232.611C359.716 231.62 360.591 230.923 361.529 230.544ZM538 80C538 120.91 504.906 154 464 154C423.094 154 390 120.91 390 80C390 39.0899 423.094 6 464 6C504.906 6 538 39.0899 538 80ZM502 80C502 59.0433 484.953 42 464 42C443.047 42 426 59.0433 426 80C426 100.957 443.047 118 464 118C484.953 118 502 100.957 502 80ZM186 80C186 120.91 152.906 154 112 154C71.0935 154 38 120.91 38 80C38 39.0899 71.0935 6 112 6C152.906 6 186 39.0899 186 80ZM150 80C150 59.0433 132.953 42 112 42C91.0466 42 74 59.0433 74 80C74 100.957 91.0466 118 112 118C132.953 118 150 100.957 150 80Z" stroke="white" stroke-opacity="0.66" stroke-width="12"/>
<defs>
<linearGradient id="paint0_linear_760_688" x1="125.156" y1="2.65871e-05" x2="605.636" y2="137.681" gradientUnits="userSpaceOnUse">
<stop stop-color="#FFB039"/>
<stop offset="1" stop-color="#FF5AFF"/>
</linearGradient>
<linearGradient id="paint1_linear_760_688" x1="103.5" y1="455.989" x2="273.878" y2="-68.0547" gradientUnits="userSpaceOnUse">
<stop stop-color="#FFB039"/>
<stop offset="1" stop-color="#FF5AFF"/>
</linearGradient>
</defs>
</svg>
